HIERARCHY
ROOT hip
{
  OFFSET 0 0 0
  CHANNELS 6 Xposition Yposition Zposition Zrotation Yrotation Xrotation
  JOINT abdomen
  {
    OFFSET 0 20.6881 -0.73152
    CHANNELS 3 Zrotation Xrotation Yrotation
    JOINT chest
    {
      OFFSET 0 11.7043 -0.48768
      CHANNELS 3 Zrotation Xrotation Yrotation
      JOINT neck
      {
        OFFSET 0 22.1894 -2.19456
        CHANNELS 3 Zrotation Xrotation Yrotation
        JOINT head
        {
          OFFSET -0.24384 7.07133 1.2192
          CHANNELS 3 Zrotation Xrotation Yrotation
          JOINT leftEye
          {
            OFFSET 4.14528 8.04674 8.04672
            CHANNELS 3 Zrotation Xrotation Yrotation
            End Site
            {
              OFFSET 1 0 0
            }
          }
          JOINT rightEye
          {
            OFFSET -3.6576 8.04674 8.04672
            CHANNELS 3 Zrotation Xrotation Yrotation
            End Site
            {
              OFFSET 1 0 0
            }
          }
        }
      }
      JOINT rCollar
      {
        OFFSET -2.68224 19.2634 -4.8768
        CHANNELS 3 Zrotation Xrotation Yrotation
        JOINT rShldr
        {
          OFFSET -8.77824 -1.95073 1.46304
          CHANNELS 3 Zrotation Xrotation Yrotation
          JOINT rForeArm
          {
            OFFSET -28.1742 -1.7115 0.48768
            CHANNELS 3 Zrotation Xrotation Yrotation
            JOINT rHand
            {
              OFFSET -22.5879 0.773209 7.07136
              CHANNELS 3 Zrotation Xrotation Yrotation
              JOINT rThumb1
              {
                OFFSET -1.2192 -0.487915 3.41376
                CHANNELS 3 Zrotation Xrotation Yrotation
                JOINT rThumb2
                {
                  OFFSET -3.37035 -0.52449 3.41376
                  CHANNELS 3 Zrotation Xrotation Yrotation
                  End Site
                  {
                    OFFSET -1.78271 -1.18214 1.43049
                  }
                }
              }
              JOINT rIndex1
              {
                OFFSET -7.75947 0.938293 5.60832
                CHANNELS 3 Zrotation Xrotation Yrotation
                JOINT rIndex2
                {
                  OFFSET -2.54057 -0.884171 1.56538
                  CHANNELS 3 Zrotation Xrotation Yrotation
                  End Site
                  {
                    OFFSET -1.62519 -0.234802 1.16502
                  }
                }
              }
              JOINT rMid1
              {
                OFFSET -8.24714 1.18213 3.41376
                CHANNELS 3 Zrotation Xrotation Yrotation
                JOINT rMid2
                {
                  OFFSET -3.10165 -0.590103 1.0647
                  CHANNELS 3 Zrotation Xrotation Yrotation
                  End Site
                  {
                    OFFSET -2.48547 -0.328903 0.83742
                  }
                }
              }
              JOINT rRing1
              {
                OFFSET -8.82822 0.546677 1.51678
                CHANNELS 3 Zrotation Xrotation Yrotation
                JOINT rRing2
                {
                  OFFSET -2.60934 -0.819778 -0.0198488
                  CHANNELS 3 Zrotation Xrotation Yrotation
                  End Site
                  {
                    OFFSET -2.33842 -0.294052 0.168128
                  }
                }
              }
              JOINT rPinky1
              {
                OFFSET -8.27202 -0.0477905 -0.4584
                CHANNELS 3 Zrotation Xrotation Yrotation
                JOINT rPinky2
                {
                  OFFSET -1.82734 -0.647385 -0.700984
                  CHANNELS 3 Zrotation Xrotation Yrotation
                  End Site
                  {
                    OFFSET -1.69225 -0.51767 -0.607171
                  }
                }
              }
            }
          }
        }
      }
      JOINT lCollar
      {
        OFFSET 2.68224 19.2634 -4.8768
        CHANNELS 3 Zrotation Xrotation Yrotation
        JOINT lShldr
        {
          OFFSET 8.77824 -1.95073 1.46304
          CHANNELS 3 Zrotation Xrotation Yrotation
          JOINT lForeArm
          {
            OFFSET 28.1742 -1.7115 0.48768
            CHANNELS 3 Zrotation Xrotation Yrotation
            JOINT lHand
            {
              OFFSET 22.5879 0.773209 7.07136
              CHANNELS 3 Zrotation Xrotation Yrotation
              JOINT lThumb1
              {
                OFFSET 1.2192 -0.487915 3.41376
                CHANNELS 3 Zrotation Xrotation Yrotation
                JOINT lThumb2
                {
                  OFFSET 3.37035 -0.52449 3.41376
                  CHANNELS 3 Zrotation Xrotation Yrotation
                  End Site
                  {
                    OFFSET 1.78271 -1.18214 1.43049
                  }
                }
              }
              JOINT lIndex1
              {
                OFFSET 7.75947 0.938293 5.60832
                CHANNELS 3 Zrotation Xrotation Yrotation
                JOINT lIndex2
                {
                  OFFSET 2.54057 -0.884171 1.56538
                  CHANNELS 3 Zrotation Xrotation Yrotation
                  End Site
                  {
                    OFFSET 1.62519 -0.234802 1.16502
                  }
                }
              }
              JOINT lMid1
              {
                OFFSET 8.24714 1.18213 3.41376
                CHANNELS 3 Zrotation Xrotation Yrotation
                JOINT lMid2
                {
                  OFFSET 3.10165 -0.590103 1.0647
                  CHANNELS 3 Zrotation Xrotation Yrotation
                  End Site
                  {
                    OFFSET 2.48547 -0.328903 0.83742
                  }
                }
              }
              JOINT lRing1
              {
                OFFSET 8.82822 0.546677 1.51678
                CHANNELS 3 Zrotation Xrotation Yrotation
                JOINT lRing2
                {
                  OFFSET 2.60934 -0.819778 -0.0198488
                  CHANNELS 3 Zrotation Xrotation Yrotation
                  End Site
                  {
                    OFFSET 2.33842 -0.294052 0.168128
                  }
                }
              }
              JOINT lPinky1
              {
                OFFSET 8.27202 -0.0477905 -0.4584
                CHANNELS 3 Zrotation Xrotation Yrotation
                JOINT lPinky2
                {
                  OFFSET 1.82734 -0.647385 -0.700984
                  CHANNELS 3 Zrotation Xrotation Yrotation
                  End Site
                  {
                    OFFSET 1.69225 -0.51767 -0.607171
                  }
                }
              }
            }
          }
        }
      }
    }
  }
  JOINT rButtock
  {
    OFFSET -8.77824 4.35084 1.2192
    CHANNELS 3 Zrotation Xrotation Yrotation
    JOINT rThigh
    {
      OFFSET 0 -1.70687 -2.19456
      CHANNELS 3 Zrotation Xrotation Yrotation
      JOINT rShin
      {
        OFFSET 0 -36.8199 0.73152
        CHANNELS 3 Zrotation Xrotation Yrotation
        JOINT rFoot
        {
          OFFSET 0.73152 -45.1104 -5.12064
          CHANNELS 3 Zrotation Xrotation Yrotation
          End Site
          {
            OFFSET -1.1221 -3.69964 12.103
          }
        }
      }
    }
  }
  JOINT lButtock
  {
    OFFSET 8.77824 4.35084 1.2192
    CHANNELS 3 Zrotation Xrotation Yrotation
    JOINT lThigh
    {
      OFFSET 0 -1.70687 -2.19456
      CHANNELS 3 Zrotation Xrotation Yrotation
      JOINT lShin
      {
        OFFSET 0 -36.8199 0.73152
        CHANNELS 3 Zrotation Xrotation Yrotation
        JOINT lFoot
        {
          OFFSET -0.73152 -45.1104 -5.12064
          CHANNELS 3 Zrotation Xrotation Yrotation
          End Site
          {
            OFFSET 1.1221 -3.69964 12.103
          }
        }
      }
    }
  }
}
MOTION
Frames:	4
Frame Time:	0.00833333
0.378554 167.291 -17.8428 183.759 14.0247 -176.142 -2.8191 5.97159 -0.569964 1.46453 -4.80573 -0.100892 -34.7205 -4.86172 -1.52706 36.2823 12.752 7.93629 -0.0 0.0 0.0 -0.0 0.0 0.0 -1.74784e-13 -1.76911e-13 -2.14861e-13 48.2575 43.9602 30.3163 -26.3487 -24.3643 58.2623 -0.617578 -21.7457 -3.21363 9.94715e-10 -9.15242e-09 -1.15742e-09 1.73415e-09 -1.60006e-08 -1.97905e-09 9.94725e-10 -9.15244e-09 -1.15743e-09 7.73091 5.47488 0.417314 9.94715e-10 -9.15242e-09 -1.15743e-09 2.90554 0.965183 0.102902 9.9473e-10 -9.15245e-09 -1.15743e-09 10.2786 0.731801 0.0259123 9.94716e-10 -9.15242e-09 -1.15742e-09 2.22167 -0.733487 -0.20892 -1.74812e-13 -1.76925e-13 -2.15079e-13 -69.2261 33.634 -0.856584 26.9886 -26.2998 -61.3588 0.0389996 -5.62721 0.793431 7.98412e-10 8.63469e-09 1.24844e-09 1.37318e-09 1.49159e-08 2.16041e-09 7.98405e-10 8.63469e-09 1.24844e-09 -7.73091 5.47488 -0.417314 7.98409e-10 8.63467e-09 1.24844e-09 -2.90554 0.965183 -0.102902 7.98403e-10 8.63469e-09 1.24844e-09 -10.2786 0.731801 -0.0259123 7.98413e-10 8.63469e-09 1.24843e-09 -2.22167 -0.733487 0.20892 -2.03217e-16 0.0 -3.88251e-19 6.63185 -16.1912 18.7419 -0.148001 29.9106 0.491161 -4.06718 -8.85291 -15.7578 2.03217e-16 0.0 3.88251e-19 0.549302 -14.204 10.0605 0.154037 28.8413 -0.587997 6.67918 -12.0448 20.615
0.470612 167.336 -17.9865 183.744 14.2171 -176.223 -2.74058 5.82489 -0.746053 1.4449 -4.76816 -0.150442 -35.4533 -4.93127 -1.47547 36.7792 12.9691 8.25535 -0.0 0.0 0.0 -0.0 0.0 0.0 -1.54032e-13 -1.46411e-13 -2.95382e-13 48.0537 44.3493 30.7537 -26.2973 -24.2226 58.0352 -0.615199 -21.708 -3.20743 1.00069e-09 -9.20194e-09 -8.97302e-10 1.7397e-09 -1.60332e-08 -1.52926e-09 1.0007e-09 -9.20196e-09 -8.97307e-10 7.73091 5.47488 0.417314 1.00069e-09 -9.20194e-09 -8.97307e-10 2.90554 0.965183 0.102902 1.0007e-09 -9.20197e-09 -8.97307e-10 10.2786 0.731801 0.0259123 1.00069e-09 -9.20194e-09 -8.97303e-10 2.22167 -0.733487 -0.20892 -1.54088e-13 -1.46423e-13 -2.95682e-13 -69.5545 33.3112 -0.306488 26.9754 -26.256 -61.289 0.0405927 -5.7406 0.809526 9.80804e-10 1.06652e-08 1.6082e-09 1.68763e-09 1.84218e-08 2.78211e-09 9.80797e-10 1.06652e-08 1.60821e-09 -7.73091 5.47488 -0.417314 9.80801e-10 1.06652e-08 1.60821e-09 -2.90554 0.965183 -0.102902 9.80798e-10 1.06652e-08 1.60821e-09 -10.2786 0.731801 -0.0259123 9.80807e-10 1.06652e-08 1.6082e-09 -2.22167 -0.733487 0.20892 -2.03217e-16 0.0 -3.88251e-19 6.50685 -16.0745 18.52 -0.149187 29.9418 0.487438 -3.96461 -8.58308 -15.6235 2.03217e-16 0.0 3.88251e-19 0.3575 -13.955 9.86025 0.152484 28.7425 -0.589413 6.79423 -12.0958 20.9121
0.550771 167.382 -18.1541 183.728 14.3099 -176.404 -2.71974 5.66661 -0.698717 1.47004 -4.7032 -0.13547 -36.2149 -4.96539 -1.41682 37.3057 13.136 8.58744 -0.0 0.0 0.0 -0.0 0.0 0.0 -1.39315e-13 -1.23242e-13 -3.91009e-13 47.8746 44.7138 31.1837 -26.2455 -24.0817 57.8089 -0.611906 -21.6544 -3.19867 1.09224e-09 -1.01811e-08 -5.98517e-10 1.8925e-09 -1.76672e-08 -1.01087e-09 1.09225e-09 -1.01812e-08 -5.9852e-10 7.73091 5.47488 0.417314 1.09224e-09 -1.01811e-08 -5.9852e-10 2.90554 0.965183 0.102902 1.09225e-09 -1.01812e-08 -5.98519e-10 10.2786 0.731801 0.0259123 1.09224e-09 -1.01811e-08 -5.98517e-10 2.22167 -0.733487 -0.20892 -1.3939e-13 -1.23251e-13 -3.91357e-13 -69.8787 32.9742 0.247195 26.9599 -26.2048 -61.207 0.0422564 -5.85684 0.826032 1.17107e-09 1.23898e-08 1.90321e-09 2.01574e-09 2.13994e-08 3.29198e-09 1.17106e-09 1.23898e-08 1.90322e-09 -7.73091 5.47488 -0.417314 1.17106e-09 1.23897e-08 1.90321e-09 -2.90554 0.965183 -0.102902 1.17106e-09 1.23898e-08 1.90321e-09 -10.2786 0.731801 -0.0259123 1.17107e-09 1.23898e-08 1.9032e-09 -2.22167 -0.733487 0.20892 -2.03217e-16 0.0 -3.88251e-19 6.47039 -15.9521 18.5368 -0.150691 29.9916 0.483841 -3.84639 -8.3347 -15.3938 2.03217e-16 0.0 3.88251e-19 0.254299 -13.6504 9.89421 0.150858 28.6529 -0.59221 6.93822 -12.2067 21.2302
0.650806 167.418 -18.3181 183.641 14.8145 -176.566 -2.80435 5.47068 -0.242808 1.57152 -4.57718 -0.00272706 -37.0282 -4.92655 -1.34351 37.8843 13.2089 8.94175 -0.0 0.0 0.0 -0.0 0.0 0.0 -1.34687e-13 -1.12232e-13 -5.25073e-13 47.7298 45.0439 31.5959 -26.1946 -23.9446 57.5887 -0.607177 -21.5756 -3.18584 1.35677e-09 -1.30295e-08 -2.21199e-10 2.34288e-09 -2.25192e-08 -3.53222e-10 1.35678e-09 -1.30295e-08 -2.21201e-10 7.73091 5.47488 0.417314 1.35678e-09 -1.30295e-08 -2.21202e-10 2.90554 0.965183 0.102902 1.35679e-09 -1.30295e-08 -2.212e-10 10.2786 0.731801 0.0259123 1.35677e-09 -1.30295e-08 -2.21197e-10 2.22167 -0.733487 -0.20892 -1.34772e-13 -1.12239e-13 -5.25419e-13 -70.1906 32.6115 0.795755 26.9411 -26.143 -61.108 0.0440833 -5.98243 0.843873 1.38849e-09 1.39696e-08 2.16363e-09 2.39055e-09 2.41269e-08 3.7422e-09 1.38848e-09 1.39696e-08 2.16364e-09 -7.73091 5.47488 -0.417314 1.38849e-09 1.39696e-08 2.16363e-09 -2.90554 0.965183 -0.102902 1.38849e-09 1.39696e-08 2.16363e-09 -10.2786 0.731801 -0.0259123 1.38849e-09 1.39696e-08 2.16362e-09 -2.22167 -0.733487 0.20892 -2.03217e-16 0.0 -3.88251e-19 6.58216 -15.8217 18.965 -0.152782 30.0733 0.48024 -3.69985 -8.10784 -15.0097 2.03217e-16 0.0 3.88251e-19 0.292246 -13.2413 10.3553 0.14896 28.5702 -0.597554 7.14067 -12.4412 21.5862
